REM GENRE Hip-Hop
REM DATE 2007
REM DISCID CE0D000E
REM COMMENT "ExactAudioCopy v0.99pb4"
PERFORMER "Kanye West"
TITLE "Graduation"
FILE "Good Morning.wav" WAVE
  TRACK 01 AUDIO
    TITLE "Good Morning"
    PERFORMER "Kanye West"
    INDEX 01 00:00:00
  TRACK 02 AUDIO
    TITLE "Champion"
    PERFORMER "Kanye West"
    INDEX 00 03:15:07
FILE "Champion.wav" WAVE
    INDEX 01 00:00:00
  TRACK 03 AUDIO
    TITLE "Stronger"
    PERFORMER "Kanye West"
    INDEX 00 02:47:45
FILE "Stronger.wav" WAVE
    INDEX 01 00:00:00
FILE "I Wonder.wav" WAVE
  TRACK 04 AUDIO
    TITLE "I Wonder"
    PERFORMER "Kanye West"
    INDEX 01 00:00:00
FILE "Good Life (feat. T-Pain).wav" WAVE
  TRACK 05 AUDIO
    TITLE "Good Life (feat. T-Pain)"
    PERFORMER "Kanye West"
    INDEX 01 00:00:00
  TRACK 06 AUDIO
    TITLE "Can't Tell Me Nothing"
    PERFORMER "Kanye West"
    INDEX 00 03:27:00
FILE "Can't Tell Me Nothing.wav" WAVE
    INDEX 01 00:00:00
FILE "Barry Bonds (feat. Lil Wayne).wav" WAVE
  TRACK 07 AUDIO
    TITLE "Barry Bonds (feat. Lil Wayne)"
    PERFORMER "Kanye West"
    INDEX 01 00:00:00
FILE "Drunk and Hot Girls (feat. Mos Def).wav" WAVE
  TRACK 08 AUDIO
    TITLE "Drunk and Hot Girls (feat. Mos Def)"
    PERFORMER "Kanye West"
    INDEX 01 00:00:00
FILE "Flashing Lights (feat. Dwele).wav" WAVE
  TRACK 09 AUDIO
    TITLE "Flashing Lights (feat. Dwele)"
    PERFORMER "Kanye West"
    INDEX 01 00:00:00
FILE "Everything I Am (feat. Scratches by DJ Premiere).wav" WAVE
  TRACK 10 AUDIO
    TITLE "Everything I Am (feat. Scratches by DJ Premiere)"
    PERFORMER "Kanye West"
    INDEX 01 00:00:00
FILE "The Glory.wav" WAVE
  TRACK 11 AUDIO
    TITLE "The Glory"
    PERFORMER "Kanye West"
    INDEX 01 00:00:00
FILE "Homecoming.wav" WAVE
  TRACK 12 AUDIO
    TITLE "Homecoming"
    PERFORMER "Kanye West"
    INDEX 01 00:00:00
FILE "Big Brother.wav" WAVE
  TRACK 13 AUDIO
    TITLE "Big Brother"
    PERFORMER "Kanye West"
    INDEX 01 00:00:00
